<?xml version="1.0" encoding="UTF-8"?>
<!DOCTYPE svg PUBLIC "-//W3C//DTD SVG 1.1//EN" "http://www.w3.org/Graphics/SVG/1.1/DTD/svg11.dtd">
<!-- Creator: CorelDRAW -->
<svg xmlns="http://www.w3.org/2000/svg" xml:space="preserve" width="6.07976in" height="6.00413in" version="1.1" style="shape-rendering:geometricPrecision; text-rendering:geometricPrecision; image-rendering:optimizeQuality; fill-rule:evenodd; clip-rule:evenodd"
viewBox="0 0 6080 6004"
 xmlns:xlink="http://www.w3.org/1999/xlink">
 <defs>
  <style type="text/css">
   <![CDATA[
    .str0 {stroke:black;stroke-width:3}
    .fil0 {fill:black}
    .fil3 {fill:#1C7C4D}
    .fil2 {fill:#F35321}
    .fil1 {fill:#F6EE56}
   ]]>
  </style>
 </defs>
 <g id="Layer_x0020_1">
  <metadata id="CorelCorpID_0Corel-Layer"/>
  <g id="Universitas_x0020_Jember_x0020__x005b_KoleksiLogo.com_x005d_.cdr">
   <path class="fil0 str0" d="M6080 2203l-157 -172c-97,-109 -295,-312 -404,-413 -15,-14 -27,-28 -42,-42l-150 -135c-8,-7 -13,-14 -21,-21l-175 -152c-102,-88 -300,-244 -410,-324 -126,-90 -251,-180 -387,-267 -110,-71 -291,-185 -406,-248 -227,-123 -418,-222 -652,-329 -31,-14 -215,-90 -226,-100l-21 0c-14,13 -76,36 -98,45 -34,14 -68,30 -103,46 -67,31 -131,63 -198,94 -228,108 -544,279 -762,417 -120,76 -244,152 -356,234 -57,42 -113,81 -170,122 -75,53 -261,192 -334,255l-294 259c-49,44 -132,112 -175,159l-73 72c-25,25 -49,48 -73,74 -13,14 -23,24 -36,37 -35,38 -69,68 -110,114 -46,52 -94,100 -139,154l-70 78c-34,42 -42,34 -36,107 79,878 309,1782 662,2579 31,71 62,129 95,201 102,221 232,459 359,667 10,17 17,30 27,46 14,23 14,25 45,31 81,15 161,35 242,51 971,193 1988,219 2968,49 168,-29 324,-65 489,-100 44,-9 42,-25 70,-75 132,-231 243,-424 360,-675 123,-264 250,-546 346,-833 103,-307 185,-592 257,-920 59,-268 96,-485 126,-756 12,-103 32,-227 32,-329z"/>
   <path class="fil1" d="M2950 5609l-105 -20c-2,-46 58,-273 55,-321 -29,38 -120,262 -144,300l-99 -16 -21 -330c-11,14 -63,279 -65,313 -31,-6 -84,-12 -109,-25l82 -431 174 36 21 269c18,-20 100,-218 120,-242l173 31c2,21 -72,381 -82,436zm214 -453c36,-15 239,-52 288,-54 56,-3 92,29 107,65 11,25 12,51 3,76 -8,24 -24,35 -37,50 143,39 110,187 40,224 -39,20 -100,32 -149,40 -54,10 -117,25 -168,31l-84 -432zm-1056 -90c55,14 131,73 186,89 -7,29 -26,54 -37,80 -23,-6 -68,-32 -93,-45 -25,-12 -75,-40 -100,-46 -13,14 -32,54 -37,73 20,20 180,87 206,110l-42 87 -332 -165c7,-29 186,-378 201,-394 28,10 316,156 323,164l-40 81c-44,-14 -176,-97 -206,-99 -9,14 -26,47 -29,65zm1772 -25c5,22 20,42 27,62l195 -93 38 77 -46 26c-34,18 -120,58 -140,74 3,11 31,68 38,75 60,-25 167,-88 210,-101l47 87 -333 168 -201 -395 323 -163c1,1 2,1 3,2l21 36c8,16 15,28 21,43 -34,14 -67,33 -102,51 -24,13 -79,43 -101,51zm-2394 -340c17,11 90,66 99,79 -8,16 -26,27 -29,47 -4,23 11,45 30,48 38,6 80,-45 97,-62l84 -76c19,-18 64,-64 84,-76 14,12 87,86 92,97 -43,35 -81,80 -104,100 -14,12 -25,18 -38,32 -32,33 -89,99 -163,110 -125,20 -286,-184 -152,-299zm3049 28c65,-9 52,-19 122,-1 37,9 79,24 113,31 -28,41 -73,74 -100,112 -61,-5 -211,-79 -231,-9 19,12 118,104 125,119 -6,11 -77,89 -85,96l-203 -185c-15,-14 -28,-24 -43,-38 -21,-19 -58,-59 -81,-74 13,-23 101,-111 126,-141l83 -79c111,-75 186,33 192,77 6,38 -10,60 -18,92zm-943 70c-27,32 -116,58 -171,65 -92,11 -119,-36 -157,-79 -66,-73 -146,-192 -188,-287 -4,12 15,95 22,116 12,35 29,69 44,103 24,55 41,95 72,145 9,16 23,33 29,47 -19,8 -181,37 -201,37 -73,2 -138,-15 -199,-40 3,-20 41,-74 54,-96 18,-33 34,-66 51,-101 18,-39 90,-178 67,-218 -15,5 -37,63 -44,78 -28,55 -53,103 -92,151 -34,43 -27,31 -60,65 -103,105 -152,106 -303,45 -7,-3 -14,-6 -21,-9 -10,-6 -14,-8 -20,-15l105 -73c53,-37 261,-225 271,-264 -26,11 -138,96 -166,118 -135,103 -323,239 -483,89 -21,-21 -57,-46 -70,-76 244,-15 443,-172 658,-285 177,-94 74,-28 236,-19 51,3 93,-4 140,-16 45,-11 83,15 119,32 212,99 410,271 659,288l-4 5c0,1 -1,2 -2,2 -19,20 -140,108 -155,116 -82,47 -145,14 -217,-23 -174,-88 -311,-223 -336,-236l122 139c74,80 100,95 190,159 11,8 44,28 50,37zm-1249 -1357c-36,-12 -77,-40 -112,-57 -114,-55 -216,-112 -342,-149 -87,-25 -179,-38 -258,-72 -182,-80 -236,-273 -152,-429 105,-194 336,-171 406,-31 60,117 -31,195 -51,235 7,11 129,88 151,102l151 100c52,44 192,247 207,301zm1903 -503c-6,-18 -23,-32 -34,-48 -112,-166 51,-317 197,-299 161,19 279,222 204,410 -69,176 -272,189 -424,233 -78,22 -168,63 -236,95 -83,38 -149,79 -215,110 9,-23 32,-58 46,-82 52,-88 86,-146 158,-217 83,-83 158,-151 304,-202zm-2073 163c-30,-18 -92,-118 -116,-151 -20,-28 -109,-134 -115,-148 -13,-30 -15,-75 -26,-107 -30,-86 -90,-94 -140,-119 -77,-38 -167,-130 -122,-246 22,-59 74,-108 159,-91 118,23 187,145 157,220 -18,44 -39,36 -77,53 8,16 14,17 27,30l75 86c99,122 178,304 178,473zm2014 -589c-2,-1 -1,-1 -8,-3 -20,-8 17,5 -6,-2 -27,-9 -52,-16 -64,-51 -13,-33 -3,-75 10,-105 23,-52 79,-103 148,-115 87,-15 139,36 161,99 30,83 -5,137 -54,187 -85,87 -170,53 -213,178 -10,30 -14,80 -26,104l-114 148c-34,43 -75,109 -113,146 1,-39 20,-146 29,-188 20,-93 91,-217 148,-285l102 -113zm-1081 1546c28,-54 94,-138 132,-185l164 -156c327,-245 607,-225 922,-348 264,-104 282,-302 311,-324 18,27 53,128 62,166 68,280 6,905 -255,1068 -10,6 -24,14 -38,19 -13,4 -30,5 -40,16 -21,23 -75,223 -336,239 -377,23 -618,-398 -987,-389 -213,5 -454,172 -631,284 -230,145 -511,149 -652,-59 -15,-23 -26,-52 -41,-73 -18,-28 -101,-12 -191,-151 -59,-92 -101,-208 -129,-331 -30,-130 -47,-281 -39,-420 9,-162 25,-245 87,-372 15,20 37,79 52,106 66,115 144,170 269,221 315,127 619,104 943,358 29,23 63,50 87,77 21,25 43,37 79,84 26,32 47,57 71,93 15,22 49,83 64,97 34,25 20,68 96,-20zm875 -1827c-53,-5 -56,2 -86,-32 -17,-19 -29,-58 -27,-93 5,-74 46,-117 101,-137 65,-24 141,-6 187,26 39,28 70,107 53,175 -32,127 -113,63 -139,215 -6,35 -15,60 -28,89 -18,41 -144,300 -156,312 -14,-23 -27,-120 -30,-152 -30,-292 110,-262 125,-403zm-1788 560c-9,-26 -27,-54 -39,-79 -44,-92 -129,-229 -145,-326 -24,-148 -111,-89 -138,-213 -37,-168 120,-247 241,-202 99,36 127,153 71,231 -21,29 -37,27 -83,31 4,12 51,108 60,120 29,40 47,58 59,118 11,54 10,113 3,169 -3,32 -16,130 -29,151zm2642 -603c-22,22 -62,65 -27,113 30,41 89,49 88,-20 -1,-46 -24,-92 -27,-141 -9,-143 151,-215 257,-35 19,33 40,84 39,130 -1,49 -30,90 -62,103 -13,-14 -28,-43 -39,-61 -16,-25 -32,-34 -20,-62 11,-25 26,-43 9,-72 -9,-16 -36,-42 -57,-22 -40,40 90,210 -21,302 -38,31 -102,40 -151,15 -74,-37 -142,-167 -134,-243 4,-49 46,-101 79,-113l66 106zm-3718 -296c30,12 215,120 247,142 88,62 107,154 39,266 -24,38 -54,82 -92,102 -99,50 -198,-20 -284,-73l-120 -72 64 -114c22,8 143,79 173,96 61,35 124,87 171,7 22,-36 7,-75 -17,-92 -59,-41 -208,-117 -246,-148l65 -114zm2620 61c-47,-2 -44,29 -72,31 -29,2 -42,-26 -50,-49 -16,-51 -9,-125 20,-164 51,-71 200,-55 265,50 53,86 -46,190 -56,220 -7,24 -13,53 -19,79 -49,205 -13,269 -31,370 -8,-12 -86,-218 -93,-246 -11,-45 -3,-109 6,-154 8,-40 27,-101 30,-137zm-1453 541c-5,-62 -1,-134 -4,-198 -3,-55 -25,-205 -47,-257 -16,-37 -104,-129 -51,-219 43,-74 199,-142 264,-43 52,79 21,227 -40,207 -27,-9 -21,-32 -66,-29 16,103 58,147 37,291 -7,44 -53,213 -93,248zm2041 -715c10,-14 184,-72 218,-85l222 -82 96 114 -222 410c-13,-7 -82,-85 -93,-103l37 -64c-20,-27 -79,-100 -100,-116 -27,4 -50,23 -73,28l-43 -51c-14,-16 -27,-31 -42,-51zm-1835 440c-4,-35 10,-124 15,-163 28,-250 -118,-362 -4,-442 71,-51 208,-22 234,72 11,44 9,120 -6,160 -30,79 -85,9 -117,12 -10,18 -15,76 -20,102 -13,70 -67,224 -102,259zm962 -361c-11,3 -33,18 -47,22 -75,22 -74,-140 -62,-191 20,-86 149,-135 234,-77 90,59 18,183 1,273 -25,139 14,235 12,328 -7,-6 1,5 -8,-9l-34 -73c-12,-28 -25,-52 -37,-81 -24,-59 -23,-141 -42,-192l-17 0zm-371 -256c74,39 109,29 196,33 4,41 5,93 -13,126 -15,30 -55,44 -97,25 -48,-23 -87,-151 -86,-184zm-280 35c39,0 76,5 114,-4 32,-7 56,-23 84,-29 -8,23 -79,177 -91,185 -35,23 -80,-4 -94,-27 -18,-31 -13,-86 -13,-125zm-1365 -118c25,-20 62,-77 89,-85l313 304c-12,22 -42,44 -60,66 -31,37 -30,28 -91,17 -69,-12 -152,-32 -220,-38 7,16 66,68 83,84l82 83c-9,18 -26,34 -41,47 -16,14 -27,31 -44,44 -16,-7 -28,-22 -41,-38l-200 -189c-27,-25 -48,-52 -75,-76 6,-13 49,-59 60,-71 11,-11 19,-22 40,-19 88,12 181,34 271,44 -13,-24 -64,-61 -84,-86 -20,-25 -72,-64 -82,-87zm223 -188c13,-14 90,-69 109,-75 4,3 2,2 6,6l29 41c12,16 20,27 31,44 20,29 42,61 63,90 21,29 41,59 63,89 10,15 20,29 31,45 10,14 23,30 30,45 -7,7 -97,69 -109,75 -19,-18 -48,-65 -66,-90l-187 -270zm2545 -43c6,-21 50,-80 62,-88l336 236c-9,17 -47,75 -62,86 -40,-22 -76,-52 -114,-74 -36,39 -171,253 -190,268 -35,-22 -76,-54 -111,-74 6,-15 37,-54 48,-71 24,-35 133,-182 140,-208l-109 -75zm-212 -110c13,-25 35,-78 50,-98l119 58c-6,26 -185,381 -200,397l-119 -62 150 -295zm-1805 -149c16,-10 113,-54 126,-51l29 466c-16,12 -115,54 -137,59 -33,-27 -129,-132 -163,-166 -38,-40 -145,-136 -163,-167 9,-9 105,-53 124,-58 12,14 19,18 30,33l162 183c12,11 18,17 29,27l-37 -326zm773 -157c24,-6 153,-1 188,-1 51,0 124,-2 161,24 34,25 62,75 45,135 -9,29 -20,42 -37,58 -23,22 -43,18 -59,33 33,32 34,5 76,88 14,28 45,80 52,108l-149 -1c-46,-53 -58,-183 -141,-182l-7 177 -137 -1 8 -438zm599 347c2,39 5,91 72,95 67,5 70,-51 30,-83 -54,-43 -164,-71 -171,-163 -8,-113 100,-143 203,-120 97,21 168,62 159,178 -27,-6 -54,-11 -81,-17 -44,-9 -41,2 -57,-37 -12,-31 -11,-42 -49,-47 -29,-3 -58,15 -40,45 8,14 94,57 117,72 33,22 74,54 82,105 16,100 -77,181 -216,151 -120,-26 -179,-65 -177,-203l128 24zm-1111 -277c29,-13 319,-63 357,-64l16 90 -224 40 11 70 209 -35c8,17 16,67 16,88l-202 35c-3,18 3,70 11,84 64,6 172,-40 231,-32l16 93 -367 64 -74 -433zm590 -700c-20,8 -38,18 -58,27l-180 82c-82,38 -155,73 -232,114 -158,82 -304,158 -450,246 -343,207 -632,403 -919,640 -32,26 -64,53 -96,79l-45 38c-17,13 -30,26 -47,40 -99,82 -266,244 -360,337l-128 130c-16,19 -24,27 -43,45 -33,32 -87,97 -122,136 -8,8 -14,11 -22,20l-61 72c-21,29 -16,34 -12,74 51,537 191,1229 361,1721 118,342 251,676 409,980 85,162 184,349 275,500 16,26 15,31 50,38 48,11 96,20 145,30 553,112 996,162 1577,164 541,1 1045,-58 1566,-171 167,-36 123,-3 202,-143 495,-866 841,-1793 970,-2849 6,-50 12,-101 17,-152 6,-46 15,-115 16,-160 0,-23 -33,-51 -53,-71 -8,-9 -13,-17 -21,-25l-125 -137c-17,-17 -28,-28 -44,-44 -28,-29 -55,-63 -86,-89 -27,-23 -57,-60 -84,-86l-178 -169c-14,-16 -29,-27 -45,-42l-183 -163c-31,-31 -197,-163 -240,-198 -224,-183 -562,-413 -823,-564 -144,-84 -302,-170 -450,-243 -109,-54 -239,-116 -354,-166 -27,-12 -100,-51 -127,-41z"/>
   <path class="fil1" d="M3044 211c27,-9 106,33 130,44l358 166c294,145 623,339 885,523 339,237 538,394 830,661 18,16 27,21 46,41 13,15 30,28 45,42 17,16 27,26 44,44 26,29 60,59 89,86l383 408c15,16 30,23 27,58 -6,102 -22,214 -34,316 -103,859 -380,1714 -736,2420 -79,158 -160,312 -247,457 -17,29 -44,93 -69,106 -24,12 -109,26 -142,32 -551,114 -996,173 -1581,172 -502,-1 -1103,-65 -1592,-168 -48,-10 -96,-23 -143,-31 -18,-4 -25,-2 -34,-13 -48,-62 -259,-462 -296,-533 -80,-156 -150,-319 -220,-483 -71,-165 -134,-335 -192,-508 -215,-642 -281,-1082 -362,-1744 -8,-66 -2,-50 55,-117l82 -93c15,-16 26,-31 41,-46l129 -134c63,-63 159,-166 220,-221 17,-14 31,-25 45,-42 26,-30 235,-208 278,-247l293 -236c101,-77 201,-146 307,-218 105,-72 212,-137 318,-206 218,-139 556,-317 799,-429 76,-35 161,-79 244,-107zm-18 -72c-45,16 -83,37 -125,55 -229,95 -645,321 -834,432 -156,92 -300,185 -442,281 -132,89 -293,207 -417,305 -68,55 -135,107 -199,162l-194 168c-78,67 -398,380 -433,422 -43,50 -74,77 -110,119l-126 143c-25,30 -22,17 -16,67 22,214 50,428 86,638 144,846 427,1676 836,2420 43,78 87,159 130,231 34,56 43,91 80,99 155,30 298,62 456,88 438,72 882,112 1335,114 541,2 1111,-60 1634,-173 179,-39 134,-1 217,-143 89,-151 173,-311 252,-472 414,-846 669,-1664 778,-2654 6,-51 17,-117 18,-167 1,-29 -15,-49 -28,-61l-263 -280c-36,-40 -59,-57 -91,-89 -16,-16 -27,-31 -43,-48l-184 -177c-42,-43 -137,-121 -191,-170 -33,-29 -64,-56 -98,-84 -176,-146 -322,-260 -511,-395l-324 -220c-248,-160 -429,-258 -691,-393 -122,-63 -244,-117 -369,-174 -29,-13 -105,-54 -133,-44z"/>
   <path class="fil2" d="M3018 3863c7,14 18,22 29,33 11,11 19,22 34,29 3,-39 -3,-102 -4,-145 0,-50 -1,-99 -3,-148 -6,-132 -16,-116 95,-204 56,-44 108,-84 143,-158 24,-50 53,-183 56,-246 -18,10 -36,28 -52,41 -130,109 -203,155 -217,354 -1,24 3,47 -29,63 -6,-81 -1,-165 -6,-246 -2,-31 -5,-47 35,-83 48,-42 42,1 140,-115 61,-73 86,-188 101,-287 -200,24 -206,266 -235,366 -5,16 -34,36 -45,37 -2,-84 0,-169 -6,-253 -3,-40 5,-51 40,-88 15,-18 53,-38 77,-52 29,-18 98,-99 119,-140 32,-64 45,-133 53,-212 -37,5 -93,45 -115,63 -71,56 -98,143 -115,234 -9,47 0,88 -56,124 -12,-24 -9,-73 -8,-104 0,-95 55,-119 67,-268 8,-101 -29,-181 -56,-270 -6,-19 -18,-84 -22,-92 -26,32 -51,126 -59,177 -38,225 55,341 57,393 3,51 7,187 0,233 -12,-6 -39,-34 -46,-49 -3,-7 -13,-174 -40,-261 -27,-88 -88,-190 -163,-235 -27,381 228,502 247,574 8,28 0,229 0,275 -19,-7 -47,-37 -61,-51 -34,-34 -28,-17 -28,-80 0,-224 -74,-270 -213,-404 -13,-12 -16,-22 -33,-26 -51,228 148,368 259,511l67 88c18,29 6,251 6,304 -14,-3 -57,-48 -61,-55 -25,-39 27,-182 -102,-358 -33,-45 -100,-108 -142,-147 -10,-10 -19,-23 -34,-28 -12,226 83,386 212,489 28,22 90,93 111,124 20,30 13,105 11,145 -1,31 3,129 -8,148z"/>
   <path class="fil3" d="M1781 4337c35,87 143,153 245,165 188,23 324,-69 458,-154 69,-45 191,-117 266,-152 24,-12 46,-22 71,-32l78 -31 -17 -8c-6,-2 -10,-3 -17,-5l-267 -72c-137,-31 -219,70 -323,144 -54,39 -117,80 -181,108 -68,31 -153,60 -232,52 -28,-3 -57,-14 -81,-15z"/>
   <path class="fil3" d="M3215 4136c5,6 -1,2 7,7l132 58c233,116 427,339 701,304 69,-9 133,-33 171,-81l24 -29c10,-12 41,-45 46,-55 -68,6 -85,25 -167,10 -52,-9 -97,-26 -141,-45 -140,-63 -231,-157 -337,-222 -43,-27 -81,-46 -140,-28 -61,18 -244,72 -296,81z"/>
   <path class="fil3" d="M3980 3899c73,3 213,-37 276,-61 95,-36 156,-70 209,-129 44,-49 92,-141 118,-217 32,-99 44,-189 32,-299 -16,12 -39,59 -75,93 -94,92 -200,129 -330,172 -42,14 -54,53 -75,93 -37,72 -143,287 -155,348z"/>
   <path class="fil3" d="M2098 3897c-6,-50 -119,-282 -153,-347 -10,-19 -20,-35 -31,-54 -13,-23 -13,-34 -42,-41 -84,-23 -172,-59 -237,-98 -42,-26 -64,-44 -94,-73 -22,-23 -56,-75 -76,-93 -4,115 25,317 80,419 62,112 143,179 275,227 67,24 201,57 278,60z"/>
   <path class="fil3" d="M1487 3977c15,84 115,250 215,279 100,30 133,66 244,45 103,-19 199,-78 270,-126 41,-27 78,-53 116,-82l117 -81c-82,-18 -158,-37 -243,-51 -177,-29 -285,72 -491,86 -67,4 -129,-5 -184,-38 -18,-11 -27,-21 -44,-32z"/>
   <path class="fil3" d="M3642 4023c105,45 424,384 663,260 65,-34 135,-10 224,-164 19,-33 50,-99 62,-138 -31,13 -67,77 -226,68 -205,-11 -314,-116 -489,-85 -42,8 -211,41 -234,59z"/>
   <path class="fil3" d="M3562 3989c19,1 176,-42 213,-50 37,-7 74,-15 111,-23 22,-5 34,-2 44,-20 7,-13 13,-34 19,-49 25,-65 52,-124 81,-186l87 -177c-50,4 -159,37 -209,51 -69,18 -137,41 -202,65 -37,14 -34,22 -61,72 -16,30 -29,59 -42,91 -29,68 -47,143 -41,226z"/>
   <path class="fil3" d="M2518 3979c-1,-88 -12,-148 -43,-223 -17,-43 -60,-147 -102,-163 -58,-21 -374,-115 -413,-111 4,4 78,150 87,170 44,94 62,145 98,233 11,26 11,21 38,26 116,18 235,52 335,68z"/>
   <path class="fil3" d="M3010 4079c5,25 27,67 39,78 10,-10 24,-28 32,-45 9,-17 14,-40 25,-53 -2,-3 -7,-4 -1,-21l26 -59c51,-139 100,-271 158,-408 11,-27 22,-54 34,-80 13,-28 30,-49 41,-73 50,4 40,51 34,118 -3,36 -15,117 -12,146 6,-20 31,-65 49,-122 13,-44 28,-102 27,-153 -4,-101 -85,-134 -170,22 -70,126 -106,246 -157,380 -9,22 -15,41 -24,63 -5,11 -10,19 -15,31 -4,8 -10,25 -15,22 -15,-7 -23,-18 -34,-29 -11,-11 -22,-19 -29,-33 -20,-20 -61,-118 -78,-153 -41,-79 -123,-220 -180,-284l-57 -61c-22,-24 -40,-35 -60,-57 -84,-89 -104,-194 -114,-349 -5,-77 -5,-150 -3,-227 2,-75 12,-155 10,-228l-40 233c-11,81 -19,168 -19,252 1,81 8,168 32,239 12,35 25,65 43,94 36,56 79,99 131,140 93,71 131,86 206,204 35,54 62,116 85,185 12,37 64,197 36,228z"/>
   <path class="fil3" d="M1991 3932c-16,-11 -95,-24 -121,-30 -72,-19 -157,-55 -216,-96 -87,-61 -160,-161 -189,-274 -15,-56 -32,-233 -46,-265 -27,185 -29,465 56,615 43,75 108,125 232,118 62,-3 242,-41 284,-68z"/>
   <path class="fil3" d="M4091 3932c35,22 212,67 271,71 241,14 296,-186 308,-383 3,-50 -3,-116 -4,-167 -2,-52 0,-122 -6,-170 -9,24 -17,154 -46,255 -103,354 -466,365 -523,394z"/>
   <path class="fil3" d="M3132 4109c129,-34 257,-69 385,-104 11,-124 39,-243 87,-356 -48,12 -114,62 -147,86 -22,17 -44,33 -64,51 -70,60 -238,236 -261,323z"/>
   <path class="fil3" d="M2565 3989c31,18 156,43 201,55 62,17 138,47 200,59 -18,-68 -146,-208 -206,-270 -40,-41 -84,-75 -132,-107 -29,-19 -126,-78 -155,-87 7,26 44,89 66,157 24,76 21,112 26,193z"/>
   <path class="fil1" d="M3352 5383c-3,21 9,61 15,83 18,4 131,-2 122,-65 -7,-52 -102,-38 -137,-18z"/>
   <path class="fil1" d="M3095 1050c47,3 127,11 125,-46 -1,-54 -76,-46 -124,-44l-1 90z"/>
   <path class="fil1" d="M4312 4738c11,16 48,49 67,59 16,-18 92,-84 46,-123 -26,-23 -46,-6 -64,11 -19,17 -36,28 -49,53z"/>
   <path class="fil1" d="M3333 5297c47,-5 114,-9 106,-63 -8,-53 -99,-28 -122,-17l16 80z"/>
   <path class="fil1" d="M4577 1809l62 71c11,-9 74,-115 80,-133l-142 62z"/>
  </g>
 </g>
</svg>
